<?xml version="1.0" encoding="iso-8859-1"?>
<!-- Uploaded to: SVG Repo, www.svgrepo.com, Generator: SVG Repo Mixer Tools -->
<svg fill="#000000" version="1.1" id="Layer_1" xmlns="http://www.w3.org/2000/svg" xmlns:xlink="http://www.w3.org/1999/xlink"
	 viewBox="0 0 414.25 414.25" xml:space="preserve">
<g>
	<g>
		<g>
			<path d="M409.075,76.8c-1.591-1.591-3.759-2.44-6.028-2.334c-7.71,0.358-46.819,2.798-59.702,15.682
				c-7.035,7.036-10.873,16.429-10.845,26.245l-22.375,22.375V48c0-4.418-3.582-8-8-8h-60.5V8c0-4.418-3.582-8-8-8h-53
				c-4.418,0-8,3.582-8,8v32h-60.5c-4.418,0-8,3.582-8,8v90.768l-22.376-22.376c0.03-9.817-3.809-19.209-10.844-26.245
				C58.021,77.264,18.912,74.824,11.203,74.466c-2.25-0.106-4.438,0.743-6.028,2.334c-1.59,1.591-2.438,3.78-2.334,6.028
				c0.358,7.709,2.798,46.818,15.682,59.702c6.995,6.994,16.292,10.846,26.18,10.846c0.021,0,0.043-0.002,0.065-0.002l59.358,59.358
				V298c0,4.418,3.582,8,8,8h39.158L128.1,348.298c-0.004,0.008-0.009,0.017-0.014,0.025l-29.643,54.081
				c-2.123,3.875-0.704,8.737,3.171,10.86c1.22,0.669,2.538,0.986,3.838,0.986c2.827,0,5.567-1.502,7.022-4.156l27.389-49.97
				h134.523l27.389,49.97c1.455,2.654,4.195,4.156,7.022,4.156c1.3,0,2.618-0.317,3.838-0.986c3.875-2.124,5.294-6.986,3.171-10.86
				l-29.635-54.067c-0.01-0.019-0.021-0.037-0.031-0.056L262.966,306h39.159c4.418,0,8-3.582,8-8v-85.268l59.357-59.358
				c0.021,0,0.043,0.002,0.064,0.002h0.002c9.887,0,19.185-3.852,26.179-10.846c12.884-12.883,15.323-51.992,15.682-59.701
				C411.513,80.58,410.666,78.392,409.075,76.8z M47.028,137.248c-0.77,0.085-1.552,0.128-2.326,0.128
				c-5.614,0-10.894-2.188-14.866-6.16c-5.243-5.243-8.847-24.289-10.357-40.105c15.632,1.521,34.932,5.169,40.112,10.35
				c4.539,4.539,6.737,10.805,6.031,17.194c-0.528,4.8-2.614,9.144-6.032,12.561C56.174,134.633,51.83,136.719,47.028,137.248z
				 M104.125,190.104l-41.412-41.411c2.987-1.66,5.754-3.726,8.191-6.163c2.437-2.437,4.503-5.204,6.163-8.191l27.058,27.058
				V190.104z M188.625,16h37v24h-37V16z M265.616,344.125H148.632L169.529,306h75.19L265.616,344.125z M294.125,290h-174V56h174V290
				z M310.125,190.104v-28.708l27.057-27.057c1.66,2.987,3.727,5.754,6.164,8.192c2.437,2.437,5.203,4.503,8.19,6.163
				L310.125,190.104z M384.413,131.216c-3.972,3.972-9.251,6.16-14.864,6.16h-0.001c-0.775,0-1.559-0.043-2.328-0.128
				c-4.801-0.529-9.144-2.615-12.561-6.032c-3.418-3.417-5.504-7.761-6.032-12.562c-0.705-6.388,1.493-12.654,6.032-17.193
				c5.243-5.243,24.288-8.847,40.104-10.358C393.242,106.735,389.593,126.036,384.413,131.216z"/>
			<path d="M144.125,274h126c4.418,0,8-3.582,8-8V80c0-4.418-3.582-8-8-8h-126c-4.418,0-8,3.582-8,8v186
				C136.125,270.418,139.707,274,144.125,274z M152.125,88h110v75.443c-2.993-1.133-5.35-2.921-8.152-5.057
				c-5.636-4.293-12.648-9.636-25.85-9.636s-20.214,5.343-25.85,9.636c-4.849,3.694-8.353,6.364-16.152,6.364
				s-11.302-2.669-16.149-6.363c-4.369-3.329-9.58-7.278-17.847-8.889V88z M152.125,166.057c2.992,1.133,5.348,2.921,8.149,5.056
				c5.635,4.293,12.647,9.637,25.847,9.637c13.201,0,20.214-5.343,25.85-9.636c4.849-3.694,8.353-6.364,16.152-6.364
				s11.304,2.669,16.152,6.364c4.37,3.329,9.582,7.277,17.85,8.889v22.44c-2.993-1.133-5.35-2.921-8.152-5.057
				c-5.636-4.293-12.648-9.636-25.85-9.636c-13.202,0-20.214,5.343-25.85,9.636c-4.849,3.694-8.353,6.364-16.152,6.364
				s-11.302-2.669-16.149-6.363c-4.369-3.329-9.58-7.278-17.847-8.889V166.057z M160.274,210.113
				c5.635,4.293,12.647,9.637,25.847,9.637c13.201,0,20.214-5.343,25.85-9.636c4.849-3.694,8.353-6.364,16.152-6.364
				s11.304,2.669,16.152,6.364c4.37,3.329,9.582,7.277,17.85,8.889V258h-110l0-52.943
				C155.117,206.19,157.473,207.978,160.274,210.113z"/>
		</g>
	</g>
</g>
</svg>
